<svg width="58" height="58" viewBox="0 0 58 58" fill="none" xmlns="http://www.w3.org/2000/svg">
<path d="M52.1193 17.5341C52.1193 15.6748 50.6106 14.1662 48.7513 14.1662C46.8919 14.1662 45.3833 15.6748 45.3833 17.5341C45.3833 18.2844 45.6361 18.9694 46.052 19.5321L38.9083 30.737L39.8542 15.577V15.1692C41.1019 14.6718 41.9827 13.4648 41.9827 12.0459C41.9827 10.1865 40.474 8.67788 38.6147 8.67788C36.7554 8.67788 35.2467 10.1865 35.2467 12.0459C35.2467 13.0979 35.736 14.0194 36.4944 14.6391L32.1641 27.8175L30.2314 11.2875C31.2508 10.7085 31.9439 9.62385 31.9439 8.36799C31.9439 6.50866 30.4353 5 28.5759 5C26.7166 5 25.208 6.50866 25.208 8.36799C25.208 9.62385 25.9011 10.7085 26.9205 11.2875L24.9878 27.8094L20.6575 14.6391C21.4077 14.0194 21.9052 13.0897 21.9052 12.0459C21.9052 10.1865 20.3965 8.67788 18.5372 8.67788C16.6779 8.67788 15.1692 10.1865 15.1692 12.0459C15.1692 13.4567 16.0418 14.6636 17.2732 15.1692L18.2436 30.7533L11.0999 19.5403C11.5158 18.9776 11.7686 18.2926 11.7686 17.5423C11.7686 15.683 10.2599 14.1743 8.40061 14.1743C6.54128 14.1743 5 15.6748 5 17.5341C5 19.1814 6.19062 20.5515 7.74822 20.8451L13.473 41.0367H13.6524L12.9429 45.6279H11.3853L10.2436 52.9918H46.8675L45.7258 45.6279H44.1682L43.524 41.4608L49.3629 20.8451C50.9286 20.5515 52.1111 19.1814 52.1111 17.5341H52.1193Z" fill="white"/>
<path d="M48.2536 20.9837C47.6909 20.9103 47.1772 20.6983 46.7368 20.3802L37.6196 34.6922L38.8102 15.5199C38.7449 15.528 38.6716 15.528 38.6063 15.528C38.1659 15.528 37.7419 15.4465 37.3586 15.2915L31.6665 32.6126L29.2363 11.7849C29.0243 11.842 28.7959 11.8583 28.5676 11.8583C28.3392 11.8583 28.1109 11.842 27.8989 11.7849L25.4687 32.6045L19.7765 15.2915C19.3933 15.4465 18.9692 15.528 18.5288 15.528C18.4636 15.528 18.3902 15.528 18.325 15.5199L19.5156 34.7003L10.3821 20.3721C9.94169 20.6901 9.42793 20.9021 8.86523 20.9755L14.2557 40.001H24.5961C25.485 40.001 25.485 41.3792 24.5961 41.3792H14.6471L14.0436 45.2936H30.1089C30.9978 45.2936 30.9978 46.6718 30.1089 46.6718H12.274L11.4585 51.9643H45.6603L44.8448 46.6718H43.2872L42.4718 41.3792H42.4799L48.2536 20.9837Z" fill="#120B12"/>
<path d="M28.5599 10.7086C29.8483 10.7086 30.8922 9.66474 30.8922 8.37626C30.8922 7.08778 29.8483 6.04395 28.5599 6.04395C27.2714 6.04395 26.2275 7.08778 26.2275 8.37626C26.2275 9.66474 27.2714 10.7086 28.5599 10.7086Z" fill="#120B12"/>
<path d="M38.6067 14.3783C39.8952 14.3783 40.939 13.3344 40.939 12.0459C40.939 10.7575 39.8952 9.71362 38.6067 9.71362C37.3182 9.71362 36.2744 10.7575 36.2744 12.0459C36.2744 13.3344 37.3182 14.3783 38.6067 14.3783Z" fill="#120B12"/>
<path d="M48.743 15.2019C47.4545 15.2019 46.4106 16.2457 46.4106 17.5342C46.4106 18.8227 47.4545 19.8665 48.743 19.8665C50.0314 19.8665 51.0753 18.8227 51.0753 17.5342C51.0753 16.2457 50.0314 15.2019 48.743 15.2019Z" fill="#120B12"/>
<path d="M18.513 14.3783C19.8015 14.3783 20.8453 13.3344 20.8453 12.0459C20.8453 10.7575 19.8015 9.71362 18.513 9.71362C17.2245 9.71362 16.1807 10.7575 16.1807 12.0459C16.1807 13.3344 17.2245 14.3783 18.513 14.3783Z" fill="#120B12"/>
<path d="M10.7086 17.5342C10.7086 16.2457 9.66474 15.2019 8.37626 15.2019C7.08778 15.2019 6.04395 16.2457 6.04395 17.5342C6.04395 18.8227 7.08778 19.8665 8.37626 19.8665C9.66474 19.8665 10.7086 18.8227 10.7086 17.5342Z" fill="#120B12"/>
</svg>
