<svg width="58" height="58" viewBox="0 0 58 58" fill="none" xmlns="http://www.w3.org/2000/svg">
<path d="M46.8082 21.1692C45.239 19.9385 43.262 19.2923 41.0774 19.2923C39.5928 19.2923 38.0851 19.6154 36.7159 20.2077L36.7005 20.1692C35.362 16.7846 33.2236 14.5231 30.7928 13.8154V10.6462H31.362C32.2774 10.6462 32.9697 9.94615 32.9697 9.01538C32.9697 8.08462 32.2774 7.38462 31.362 7.38462H30.7928V6.60769C30.7928 5.69231 30.0928 5 29.162 5C28.2313 5 27.5313 5.69231 27.5313 6.60769V7.38462H26.962C26.4774 7.38462 26.0467 7.57692 25.7467 7.93077C25.4928 8.22308 25.3543 8.61538 25.3543 9.01538C25.3543 9.94615 26.0467 10.6462 26.962 10.6462H27.5313V13.8154C25.1005 14.5154 22.962 16.7846 21.6236 20.1692L21.6082 20.2077C20.2313 19.6231 18.7236 19.2923 17.2467 19.2923C15.062 19.2923 13.0851 19.9385 11.5159 21.1692C8.55435 23.4923 7.27743 27.9462 8.40819 32C9.34666 35.3308 11.8082 38.4692 15.3467 40.8385C15.5774 40.9923 15.8082 41.1308 16.0467 41.2769L15.3082 46.0538H13.839L12.7697 53H45.5851L44.5082 46.0538H43.039L42.3005 41.2769C42.5313 41.1308 42.7697 40.9923 42.9928 40.8385C46.5313 38.4692 49.0005 35.3308 49.9313 32C51.062 27.9462 49.7851 23.5 46.8236 21.1769L46.8082 21.1692Z" fill="white"/>
<path d="M29.1619 28.4769C30.5465 24.9846 32.7927 22.2308 35.5619 20.6538C35.6311 20.6077 35.7081 20.5692 35.785 20.5308C34.3619 16.9384 31.9311 14.5615 29.1542 14.5615C26.3773 14.5615 23.9465 16.9384 22.5234 20.5308C22.6004 20.5615 22.6773 20.6077 22.7465 20.6538C25.5157 22.2308 27.7619 24.9846 29.1465 28.4769H29.1619Z" fill="#120B12"/>
<path d="M42.185 47.0231L41.4158 42.0308H16.9158L16.3465 45.7231H30.3158C31.1465 45.7231 31.1465 47.0231 30.3158 47.0231H14.6696L13.9004 52.0154H44.4312L43.6619 47.0231H42.1927H42.185Z" fill="#120B12"/>
<path d="M26.9617 9.66926H28.5156V14.0539C28.731 14.0308 28.9463 14.0154 29.1617 14.0154C29.3771 14.0154 29.5925 14.0231 29.8079 14.0539V9.66926H31.3617C32.2002 9.66926 32.2002 8.36926 31.3617 8.36926H29.8079V6.61542C29.8079 5.77696 28.5079 5.77696 28.5079 6.61542V8.36926H26.954C26.1156 8.36926 26.1156 9.66926 26.954 9.66926H26.9617Z" fill="#120B12"/>
<path d="M17.0309 40.7308H28.5155V29.8616C27.3924 26.5001 25.3078 23.3462 22.2232 21.5847C19.1232 19.8155 14.9386 19.7308 12.1232 21.9385C9.2924 24.1539 8.37701 28.2616 9.35394 31.7308C10.3232 35.1847 12.9078 38.0232 15.8924 40.0232C16.2616 40.277 16.6462 40.5078 17.0309 40.7308Z" fill="#120B12"/>
<path d="M46.2077 21.9385C43.3924 19.7308 39.2077 19.8155 36.1077 21.5847C33.0231 23.3462 30.9462 26.5001 29.8154 29.8616V40.7308H41.3C41.6847 40.5078 42.0616 40.2693 42.4385 40.0232C45.4308 38.0232 48.0077 35.1924 48.977 31.7308C49.9462 28.2616 49.0385 24.1616 46.2077 21.9385Z" fill="#120B12"/>
</svg>
