<svg width="58" height="58" viewBox="0 0 58 58" fill="none" xmlns="http://www.w3.org/2000/svg">
<path d="M42.999 46.0505H41.5291L40.7595 41.0558H37.5964V33.4906H37.4656C38.2275 32.8057 38.9509 32.0284 39.5743 31.1433C41.2213 28.8038 41.7215 26.0563 40.9134 23.7783C40.1977 21.7927 38.6123 20.392 37.2116 19.153C36.0572 18.1448 34.9028 17.1058 33.7561 16.0669C32.671 15.0895 31.5859 14.1121 30.5007 13.1578C31.8937 12.4343 32.8634 11.0029 32.8634 9.32516C32.8634 6.93939 30.924 5 28.5382 5C26.1525 5 24.2131 6.93939 24.2131 9.32516C24.2131 11.0029 25.1751 12.442 26.5758 13.1578C25.4906 14.1121 24.4055 15.0818 23.3203 16.0669C22.1659 17.1058 21.0192 18.1448 19.8571 19.1607C18.4642 20.3997 16.8788 21.8004 16.1631 23.786C15.3627 26.0563 15.8629 28.8038 17.5022 31.1356C18.064 31.9437 18.7412 32.6979 19.6109 33.4906H19.48V41.0558H16.317L15.5474 46.0505H14.0774L13 53H44.0919L43.0144 46.0505H42.999Z" fill="white"/>
<path d="M42.1606 47.0279H40.6906L39.921 42.0332H36.6195V34.4681H34.6801C36.2116 33.3521 37.6969 32.1208 38.7743 30.5739C40.0904 28.7038 40.7599 26.2564 39.998 24.1092C39.3746 22.3853 37.9432 21.1001 36.5733 19.8918C34.1875 17.8139 31.8248 15.5898 29.4391 13.5195C29.1543 13.5965 28.8465 13.6427 28.5386 13.6427C28.2308 13.6427 27.923 13.5965 27.6382 13.5195C25.2524 15.5898 22.8898 17.8062 20.504 19.8918C19.1341 21.1078 17.7027 22.3853 17.0793 24.1092C16.3174 26.2564 16.9869 28.7038 18.303 30.5739C18.9802 31.5436 19.8114 32.3824 20.7195 33.1674H26.0605C26.8994 33.1674 26.8994 34.4681 26.0605 34.4681H20.4501V40.7326H26.0605C26.8994 40.7326 26.8994 42.0332 26.0605 42.0332H17.1332L16.5637 45.7273H31.2476C32.0865 45.7273 32.0865 47.0279 31.2476 47.0279H14.8936L14.124 52.0227H42.9379L42.1683 47.0279H42.1606ZM25.4602 24.8019C25.3525 24.8019 25.2601 24.7865 25.1832 24.748C25.1062 24.7095 25.037 24.6633 24.9831 24.6018C24.8292 24.4171 24.7907 24.1477 24.8676 23.9245C24.8753 23.8784 24.8907 23.8476 24.9138 23.8091C25.0216 23.6167 25.1909 23.4936 25.4602 23.4936H27.8768V20.8769C27.8768 20.038 29.1774 20.038 29.1774 20.8769V23.4936H31.594C31.8633 23.4936 32.0326 23.6167 32.1404 23.7937C32.1635 23.8399 32.1866 23.8707 32.1866 23.9168C32.2635 24.14 32.2327 24.4094 32.0711 24.5941C32.0172 24.6557 31.948 24.7095 31.871 24.7403C31.7941 24.7788 31.694 24.7942 31.594 24.7942H29.1774V27.4262C29.1774 28.2651 27.8768 28.2651 27.8768 27.4262V24.7942H25.4602V24.8019Z" fill="#120B12"/>
<path d="M28.5231 12.6728C30.3701 12.6728 31.8708 11.1721 31.8708 9.32506C31.8708 7.47802 30.3701 5.97729 28.5231 5.97729C26.676 5.97729 25.1753 7.47802 25.1753 9.32506C25.1753 11.1721 26.676 12.6728 28.5231 12.6728Z" fill="#120B12"/>
</svg>
