<svg width="58" height="58" viewBox="0 0 58 58" fill="none" xmlns="http://www.w3.org/2000/svg">
<path d="M43.0508 44.9254L42.4062 44.8483C41.2014 44.7018 40.7563 44.2545 40.7332 43.8766C41.4393 42.0797 47.1564 26.8869 41.4009 16.4216C38.7533 11.6093 34.0952 8.57841 27.5493 7.40617C26.6744 6.94344 22.9065 5 20.9726 5C19.8752 5 19.4455 5.58612 19.292 5.93316C19.1232 6.30334 19.0925 6.75064 19.2843 7.3599C18.916 7.28278 18.5937 7.2365 18.302 7.2365C17.2277 7.2365 16.7979 7.81491 16.6444 8.15424C16.3221 8.86375 16.2991 10.0823 18.985 13.2365C18.5246 13.946 18.1102 14.8098 17.7956 15.8509C17.6881 16.0823 16.89 17.6015 14.3576 19.383C13.5902 19.9306 13.1067 20.7712 13.03 21.6967C12.9302 22.9692 13.03 24.8586 14.1043 26.6093L14.5955 27.4113L15.4166 26.9486C15.6929 26.7943 16.0459 26.6324 16.3528 26.5167C16.2684 26.7249 16.138 26.9949 15.9384 27.3496L15.3706 28.3676L16.4603 28.7532C16.5524 28.7841 17.3888 29.0694 18.5706 29.0694C18.9313 29.0694 19.292 29.0386 19.6373 28.9846C20.3894 28.8689 21.057 28.3753 21.433 27.6581C21.8551 26.8329 22.9832 25.4447 25.7305 25.4447C26.1526 25.4447 26.5977 25.4756 27.0581 25.545C27.1425 25.5604 27.2116 25.6144 27.2576 25.7224C27.273 25.7455 27.273 25.7841 27.273 25.8303C27.273 25.8843 27.2576 25.9614 27.1886 26.0308C25.7152 27.5887 22.7837 31.0283 19.7217 36.5887C18.7548 38.347 18.1716 40.2596 17.9951 42.2725L17.9567 42.6812H17.7572L17.9337 43.8149C17.9337 43.8149 17.9337 44.0231 17.7802 44.2236C17.5423 44.5398 16.9975 44.7635 16.2531 44.856L15.6085 44.9332L13.3676 53H28.4625H29.4371H45.307L43.0585 44.9332L43.0508 44.9254Z" fill="white"/>
<path d="M21.7864 10.6296L20.1902 8.64758C15.1944 6.90465 18.3407 10.9921 19.7681 12.6579C20.4281 11.3699 21.794 10.6219 21.794 10.6219L21.7864 10.6296Z" fill="#120B12"/>
<path d="M42.2915 45.8195C39.4828 45.4801 39.7668 43.6601 39.7668 43.6601C39.7668 43.6601 52.4366 12.7192 27.2274 8.35415C27.2274 8.35415 14.6189 1.53667 22.999 11.0534C22.999 11.0534 19.9217 12.0174 18.7092 16.1973C18.7092 16.1973 17.9955 18.0328 14.9182 20.1922C14.3887 20.5624 14.0511 21.1485 14.005 21.7809C13.9206 22.8606 13.9897 24.5495 14.9412 26.0997C14.9412 26.0997 19.1006 23.7166 16.7984 27.8349C16.7984 27.8349 18.0032 28.259 19.5073 28.0277C19.9754 27.9583 20.3591 27.6344 20.5817 27.2179C21.1495 26.1074 22.8455 23.9711 27.212 24.5804C27.6264 24.6421 27.9794 24.9197 28.1559 25.313C28.2327 25.475 28.271 25.6601 28.271 25.8374C28.271 26.1614 28.1483 26.4698 27.918 26.7166C26.6825 28.02 23.6973 31.4364 20.597 37.074C19.6991 38.7089 19.1543 40.5135 18.9931 42.3722H33.0903C33.9268 42.3722 33.9268 43.6755 33.0903 43.6755H18.901C18.901 43.6755 19.185 45.5033 16.3763 45.8349L14.6496 52.0277H28.4629H44.0182L42.2915 45.8349V45.8195Z" fill="#120B12"/>
</svg>
