<svg width="58" height="58" viewBox="0 0 58 58" fill="none" xmlns="http://www.w3.org/2000/svg">
<path d="M42.4631 43.1764L41.9234 43.0376C36.8496 41.7267 36.2482 36.9229 36.2713 34.6019C37.4588 34.2087 38.3147 33.0829 38.3147 31.772V28.6183C38.3147 27.3846 37.5667 26.3282 36.4949 25.8733C39.2631 23.6525 40.9133 20.2983 40.9133 16.7359C40.9133 10.2665 35.6545 5 29.1928 5C22.7311 5 17.4646 10.2665 17.4646 16.7359C17.4646 20.2983 19.1147 23.6525 21.8829 25.8733C20.8188 26.3282 20.0631 27.3846 20.0631 28.6183V31.772C20.0631 33.0906 20.9267 34.2087 22.1142 34.6096V35.0569C22.0602 36.8149 21.5976 40.0381 19.0067 41.881L17.426 43.0067H15.9687L13 53H27.4501H28.4294H45.3701L42.4631 43.1841V43.1764Z" fill="white"/>
<path d="M23.0164 25.5185H35.3692C38.1296 23.5754 39.934 20.36 39.934 16.7282C39.934 10.7985 35.1224 5.97925 29.1928 5.97925C23.2631 5.97925 18.4438 10.7985 18.4438 16.7359C18.4438 20.3677 20.2482 23.5831 23.0087 25.5262L23.0164 25.5185Z" fill="#120B12"/>
<path d="M41.6768 43.9861C35.2074 42.3205 35.1843 35.7123 35.3231 33.7769C36.4334 33.7769 37.3356 32.8824 37.3356 31.7721V28.6183C37.3356 27.5157 36.4334 26.6135 35.3231 26.6135H23.0628C21.9525 26.6135 21.0503 27.5157 21.0503 28.6183V31.7721C21.0503 32.8824 21.9525 33.7769 23.0628 33.7769H26.6098C27.4503 33.7769 27.4503 35.08 26.6098 35.08H23.0937C23.0397 37.1928 22.4614 40.6395 19.5853 42.6752H29.432C30.2725 42.6752 30.2725 43.9783 29.432 43.9783H16.7014L14.311 52.013H27.4503H44.0518L41.6691 43.9861H41.6768Z" fill="#120B12"/>
</svg>
