<svg width="58" height="58" viewBox="0 0 58 58" fill="none" xmlns="http://www.w3.org/2000/svg">
<path d="M12 53L13.0773 46.0516H14.547L15.3164 41.0577H17.8326V22.0747H15.2241L14.7778 13.2103L14.3546 5H23.5422V12.1792H24.7118V5H33.8455V12.1792H35.0151V5H44.1949L43.7717 13.2103L43.3254 22.0747H40.7246V41.0577H43.2408L44.0103 46.0516H45.48L46.5572 53H12Z" fill="white"/>
<path d="M44.6412 47.0289H43.1715L42.402 42.035H39.7473V21.0975H42.402L42.8021 13.1642L43.1715 5.98499H36V13.1642H32.8759V5.97729H25.6967V13.1565H22.5726V5.97729H15.3857L15.755 13.1565L16.1551 21.0898H31.0061C31.8448 21.0898 31.8448 22.3902 31.0061 22.3902H18.8021V40.7269H31.0061C31.8448 40.7269 31.8448 42.0273 31.0061 42.0273H16.1551L15.5857 45.7208H31.0137C31.8525 45.7208 31.8525 47.0212 31.0137 47.0212H13.916L13.1465 52.0151H45.4184L44.6489 47.0212L44.6412 47.0289Z" fill="#120B12"/>
</svg>
