<svg width="58" height="58" viewBox="0 0 58 58" fill="none" xmlns="http://www.w3.org/2000/svg">
<path d="M52.1273 17.5363C52.1273 15.6766 50.6184 14.1677 48.7587 14.1677C46.8991 14.1677 45.3901 15.6766 45.3901 17.5363C45.3901 18.2867 45.643 18.9718 46.059 19.5346L38.914 30.7414L39.8602 15.5788V15.1709C41.1081 14.6734 41.989 13.4663 41.989 12.0471C41.989 10.1874 40.48 8.67851 38.6204 8.67851C36.7607 8.67851 35.2518 10.1956 35.2518 12.0471C35.2518 13.0992 35.7412 14.0209 36.4997 14.6408L32.1687 27.8214L30.2357 11.2885C31.2552 10.7094 31.9485 9.62464 31.9485 8.36856C31.9485 6.50892 30.4396 5 28.5799 5C26.7203 5 25.2114 6.50892 25.2114 8.36856C25.2114 9.62464 25.9047 10.7094 26.9242 11.2885L24.9912 27.8133L20.6602 14.6408C21.4105 14.0209 21.9081 13.0992 21.9081 12.0471C21.9081 10.1874 20.3992 8.67851 18.5395 8.67851C16.6799 8.67851 15.1709 10.1956 15.1709 12.0471C15.1709 13.4581 16.0437 14.6653 17.2753 15.1709L18.2459 30.7577L11.1009 19.5427C11.5169 18.9799 11.7698 18.2948 11.7698 17.5444C11.7698 15.6848 10.2608 14.1759 8.40119 14.1759C6.54155 14.1759 5 15.6766 5 17.5363C5 19.1839 6.19082 20.5541 7.74868 20.8477L13.4744 41.0428H13.6539L12.9443 45.6348H11.3864L10.2445 53H46.8746L45.7327 45.6348H44.1749L43.5305 41.467L49.3704 20.8396C50.9365 20.546 52.1191 19.1757 52.1191 17.5281L52.1273 17.5363Z" fill="#120B12"/>
<path d="M48.2613 20.9865C47.6985 20.9131 47.1847 20.701 46.7442 20.3829L37.6254 34.6973L38.8163 15.5217C38.751 15.5299 38.6776 15.5299 38.6123 15.5299C38.1719 15.5299 37.7478 15.4483 37.3644 15.2934L31.6713 32.6174L29.2407 11.7861C29.0287 11.8432 28.8003 11.8595 28.5719 11.8595C28.3435 11.8595 28.1151 11.8432 27.9031 11.7861L25.4725 32.6092L19.7794 15.2934C19.396 15.4483 18.9719 15.5299 18.5315 15.5299C18.4662 15.5299 18.3928 15.5299 18.3276 15.5217L19.5184 34.7054L10.3833 20.3747C9.94285 20.6928 9.429 20.9049 8.86621 20.9783L14.2575 39.9989H24.5998C25.4888 39.9989 25.4888 41.3773 24.5998 41.3773H14.649L14.0455 45.2923H30.1135C31.0025 45.2923 31.0025 46.6708 30.1135 46.6708H12.2756L11.4599 51.9642H45.6676L44.8519 46.6708H43.2941L42.4784 41.3773H42.4866L48.2613 20.9783V20.9865Z" fill="white"/>
<path d="M28.5637 10.7094C29.8524 10.7094 30.8964 9.66536 30.8964 8.37666C30.8964 7.08796 29.8524 6.04395 28.5637 6.04395C27.275 6.04395 26.231 7.08796 26.231 8.37666C26.231 9.66536 27.275 10.7094 28.5637 10.7094Z" fill="white"/>
<path d="M38.6125 14.3798C39.9012 14.3798 40.9452 13.3358 40.9452 12.0471C40.9452 10.7584 39.9012 9.71436 38.6125 9.71436C37.3238 9.71436 36.2798 10.7584 36.2798 12.0471C36.2798 13.3358 37.3238 14.3798 38.6125 14.3798Z" fill="white"/>
<path d="M48.7502 15.2036C47.4615 15.2036 46.4175 16.2476 46.4175 17.5363C46.4175 18.825 47.4615 19.869 48.7502 19.869C50.0389 19.869 51.0829 18.825 51.0829 17.5363C51.0829 16.2476 50.0389 15.2036 48.7502 15.2036Z" fill="white"/>
<path d="M18.5148 14.3798C19.8032 14.3798 20.8475 13.3354 20.8475 12.0471C20.8475 10.7587 19.8032 9.71436 18.5148 9.71436C17.2265 9.71436 16.1821 10.7587 16.1821 12.0471C16.1821 13.3354 17.2265 14.3798 18.5148 14.3798Z" fill="white"/>
<path d="M10.7094 17.5363C10.7094 16.2476 9.66536 15.2036 8.37666 15.2036C7.08796 15.2036 6.04395 16.2476 6.04395 17.5363C6.04395 18.825 7.08796 19.869 8.37666 19.869C9.66536 19.869 10.7094 18.825 10.7094 17.5363Z" fill="white"/>
</svg>
