<svg width="58" height="58" viewBox="0 0 58 58" fill="none" xmlns="http://www.w3.org/2000/svg">
<path d="M43.1844 44.9254L42.5366 44.8483C41.3258 44.7018 40.8785 44.2545 40.8553 43.8766C41.5648 42.0797 47.3103 26.8869 41.5263 16.4216C38.8656 11.6093 34.1844 8.57841 27.606 7.40617C26.7268 6.94344 22.9401 5 20.9967 5C19.8939 5 19.462 5.58612 19.3078 5.93316C19.1381 6.30334 19.1072 6.75064 19.3 7.35219C18.9299 7.27506 18.606 7.22879 18.3206 7.22879C17.2409 7.22879 16.809 7.8072 16.6548 8.15424C16.3309 8.86375 16.3078 10.0823 19.007 13.2365C18.5443 13.946 18.1278 14.8098 17.8193 15.8509C17.7114 16.0823 16.9093 17.6015 14.3643 19.383C13.5931 19.9306 13.1072 20.7712 13.0301 21.6967C12.9299 22.9692 13.0301 24.8586 14.1098 26.6093L14.6034 27.4113L15.4286 26.9409C15.6677 26.8021 16.0378 26.6324 16.3695 26.5167C16.2846 26.7249 16.1535 26.9949 15.953 27.3496L15.3823 28.3676L16.4851 28.7532C16.5777 28.7841 17.4183 29.0694 18.5982 29.0694C18.9607 29.0694 19.3232 29.0386 19.6702 28.9846C20.426 28.8766 21.097 28.383 21.4749 27.6581C21.899 26.8329 23.0327 25.4447 25.7936 25.4447C26.2178 25.4447 26.6651 25.4756 27.1278 25.545C27.2126 25.5604 27.2821 25.6144 27.3283 25.7224C27.336 25.7378 27.3437 25.7763 27.3437 25.8226C27.3437 25.8997 27.3129 25.9614 27.2589 26.0231C25.7782 27.581 22.8322 31.0206 19.7551 36.581C18.7833 38.3393 18.1972 40.2519 18.0198 42.2648L17.9813 42.6735H17.7808L17.9581 43.8072C17.9581 43.8072 17.9581 44.0154 17.8039 44.2159C17.5648 44.5321 17.0173 44.7558 16.2692 44.8483L15.6214 44.9254L13.354 53H28.5237H29.5031H45.4517L43.1921 44.9332L43.1844 44.9254Z" fill="#120B12"/>
<path d="M21.8141 10.6298L20.21 8.64782C15.1894 6.90489 18.3514 10.9923 19.7858 12.6581C20.4491 11.3702 21.8218 10.6221 21.8218 10.6221L21.8141 10.6298Z" fill="white"/>
<path d="M42.4206 45.8277C39.598 45.4884 39.8834 43.6684 39.8834 43.6684C39.8834 43.6684 52.616 12.7275 27.2818 8.36245C27.2818 8.36245 14.6109 1.54497 23.0325 11.0617C23.0325 11.0617 19.9399 12.0257 18.7214 16.2056C18.7214 16.2056 18.0042 18.0411 14.9116 20.2005C14.3795 20.5707 14.0402 21.1568 13.9939 21.7892C13.9091 22.8689 13.9785 24.5578 14.9348 26.108C14.9348 26.108 19.1147 23.7249 16.8011 27.8432C16.8011 27.8432 18.0119 28.2673 19.5235 28.036C19.9939 27.9666 20.3795 27.6427 20.6032 27.2262C21.1739 26.1157 22.8782 23.9794 27.2664 24.5887C27.6829 24.6504 28.0376 24.928 28.215 25.3213C28.2921 25.4833 28.3307 25.6684 28.3307 25.8457C28.3307 26.1697 28.2073 26.4781 27.9759 26.7249C26.7343 28.0283 23.7343 31.4447 20.6186 37.0822C19.7163 38.7172 19.1687 40.5218 19.0068 42.3804H33.1739C34.0145 42.3804 34.0145 43.6838 33.1739 43.6838H18.9142C18.9142 43.6838 19.1996 45.5116 16.3769 45.8432L14.6417 52.036H28.5235H44.1559L42.4206 45.8432V45.8277Z" fill="white"/>
</svg>
