<svg width="58" height="58" viewBox="0 0 58 58" fill="none" xmlns="http://www.w3.org/2000/svg">
<path d="M46.8144 21.1718C45.2449 19.9409 43.2677 19.2946 41.0827 19.2946C39.5979 19.2946 38.0899 19.6177 36.7205 20.2101L36.7051 20.1717C35.3664 16.7865 33.2276 14.5246 30.7965 13.8168V10.6471H31.3658C32.2813 10.6471 32.9737 9.94695 32.9737 9.01603C32.9737 8.08511 32.2813 7.385 31.3658 7.385H30.7965V6.60795C30.7965 5.69242 30.0964 5 29.1654 5C28.2345 5 27.5344 5.69242 27.5344 6.60795V7.385H26.9651C26.4804 7.385 26.0496 7.57734 25.7495 7.93124C25.4956 8.22359 25.3571 8.60827 25.3571 9.01603C25.3571 9.94695 26.0496 10.6471 26.9651 10.6471H27.5344V13.8168C25.1032 14.5169 22.9644 16.7865 21.6258 20.1717L21.6104 20.2101C20.2409 19.6254 18.7253 19.2946 17.2481 19.2946C15.0632 19.2946 13.0859 19.9409 11.5165 21.1718C8.55444 23.4953 7.27731 27.9498 8.40826 31.9966C9.34687 35.3279 11.8088 38.4669 15.3478 40.8365C15.5786 40.9904 15.8094 41.1289 16.0479 41.275L15.3094 46.0527H13.8399L12.7705 53H45.5911L44.514 46.0527H43.0446L42.306 41.275C42.5368 41.1289 42.7753 40.9904 42.9984 40.8365C46.5375 38.4669 49.0071 35.3279 49.938 31.9966C51.0689 27.9421 49.7918 23.4953 46.8298 21.1718H46.8144Z" fill="#120B12"/>
<path d="M29.1654 28.4808C30.5502 24.988 32.7968 22.2337 35.5664 20.6565C35.6357 20.6104 35.7126 20.5719 35.7895 20.5334C34.3662 16.9405 31.9351 14.5632 29.1577 14.5632C26.3803 14.5632 23.9492 16.9405 22.5259 20.5334C22.6028 20.5719 22.6798 20.6104 22.749 20.6565C25.5187 22.2337 27.7652 24.988 29.15 28.4808H29.1654Z" fill="white"/>
<path d="M42.1905 47.03L41.4212 42.0369H16.9172L16.3479 45.7298H30.3194C31.1503 45.7298 31.1503 47.03 30.3194 47.03H14.6707L13.9014 52.0231H44.437L43.6677 47.03H42.1982H42.1905Z" fill="white"/>
<path d="M26.9653 9.6701H28.5193V14.0554C28.7348 14.0323 28.9502 14.0169 29.1656 14.0169C29.381 14.0169 29.5964 14.0246 29.8119 14.0554V9.6701H31.366C32.2046 9.6701 32.2046 8.36989 31.366 8.36989H29.8119V6.61576C29.8119 5.77717 28.5117 5.77717 28.5117 6.61576V8.36989H26.9576C26.119 8.36989 26.119 9.6701 26.9576 9.6701H26.9653Z" fill="white"/>
<path d="M17.0326 40.7366H28.5191V29.8656C27.3958 26.5035 25.3109 23.3492 22.2258 21.5873C19.1253 19.8178 14.94 19.7332 12.1242 21.9412C9.29294 24.157 8.37741 28.2653 9.35449 31.7351C10.3239 35.1895 12.9089 38.0284 15.894 40.0288C16.2633 40.2826 16.648 40.5134 17.0326 40.7366Z" fill="white"/>
<path d="M46.2143 21.9412C43.3984 19.7332 39.2131 19.8178 36.1127 21.5873C33.0275 23.3492 30.9503 26.5035 29.8193 29.8656V40.7366H41.3058C41.6905 40.5134 42.0675 40.275 42.4444 40.0288C45.4372 38.0284 48.0146 35.1972 48.9839 31.7351C49.9533 28.2653 49.0455 24.1647 46.2143 21.9412Z" fill="white"/>
</svg>
