<svg width="58" height="58" viewBox="0 0 58 58" fill="none" xmlns="http://www.w3.org/2000/svg">
<path d="M42.999 46.0582H41.5291L40.7595 41.0635H37.5964V33.4983H37.4579C38.2198 32.8134 38.9432 32.0361 39.5666 31.151C41.2136 28.8114 41.7138 26.064 40.9057 23.786C40.19 21.8081 38.6046 20.3997 37.2039 19.1607C36.0495 18.1525 34.8951 17.1135 33.7484 16.0669C32.6633 15.0895 31.5859 14.1121 30.5007 13.1578C31.8937 12.4343 32.8634 11.0029 32.8634 9.32516C32.8634 6.93939 30.924 5 28.5382 5C26.1525 5 24.2131 6.93939 24.2131 9.32516C24.2131 11.0029 25.1751 12.4343 26.5758 13.1578C25.4906 14.1121 24.4055 15.0818 23.328 16.0669C22.1736 17.1058 21.0269 18.1525 19.8648 19.1607C18.4719 20.3997 16.8865 21.8004 16.1708 23.786C15.3704 26.0563 15.8706 28.8038 17.5099 31.1356C18.0717 31.9437 18.7489 32.6979 19.6186 33.4906H19.4877V41.0558H16.3247L15.5474 46.0505H14.0774L13 53H44.0919L43.0144 46.0505L42.999 46.0582Z" fill="#120B12"/>
<path d="M42.1606 47.0358H40.6906L39.921 42.0411H36.6195V34.4759H34.6801C36.2116 33.36 37.6969 32.1286 38.7743 30.5817C40.0904 28.7116 40.7599 26.2642 39.998 24.1171C39.3746 22.3931 37.9432 21.1079 36.5733 19.8996C34.1875 17.8217 31.8248 15.5976 29.4391 13.5273C29.1543 13.6043 28.8465 13.6505 28.5386 13.6505C28.2308 13.6505 27.923 13.6043 27.6382 13.5273C25.2525 15.5976 22.8898 17.814 20.504 19.8996C19.1341 21.1156 17.7027 22.3931 17.0793 24.1171C16.3174 26.2642 16.9869 28.7116 18.303 30.5817C18.9802 31.5514 19.8114 32.3903 20.7195 33.1753H26.0605C26.8994 33.1753 26.8994 34.4759 26.0605 34.4759H20.4501V40.7404H26.0605C26.8994 40.7404 26.8994 42.0411 26.0605 42.0411H17.1332L16.5637 45.7351H31.2476C32.0865 45.7351 32.0865 47.0358 31.2476 47.0358H14.8936L14.124 52.0305H42.9379L42.1683 47.0358H42.1606ZM25.4602 24.8097C25.3525 24.8097 25.2601 24.7943 25.1832 24.7558C25.1062 24.7173 25.037 24.6712 24.9831 24.6096C24.8292 24.4249 24.7907 24.1555 24.8677 23.9323C24.8753 23.8862 24.8907 23.8554 24.9138 23.8169C25.0216 23.6245 25.1909 23.5014 25.4602 23.5014H27.8768V20.8847C27.8768 20.0459 29.1774 20.0459 29.1774 20.8847V23.5014H31.594C31.8633 23.5014 32.0326 23.6245 32.1404 23.8015C32.1635 23.8477 32.1866 23.8785 32.1866 23.9247C32.2635 24.1478 32.2327 24.4172 32.0711 24.6019C32.0172 24.6635 31.948 24.7173 31.871 24.7481C31.7941 24.7866 31.694 24.802 31.594 24.802H29.1774V27.434C29.1774 28.2729 27.8768 28.2729 27.8768 27.434V24.802H25.4602V24.8097Z" fill="white"/>
<path d="M28.5231 12.6806C30.3701 12.6806 31.8708 11.1799 31.8708 9.33287C31.8708 7.48583 30.3701 5.98511 28.5231 5.98511C26.676 5.98511 25.1753 7.48583 25.1753 9.33287C25.1753 11.1799 26.676 12.6806 28.5231 12.6806Z" fill="white"/>
</svg>
