<svg width="58" height="58" viewBox="0 0 58 58" fill="none" xmlns="http://www.w3.org/2000/svg">
<path d="M42.4679 43.1825L41.928 43.0437C36.8535 41.7404 36.2519 36.928 36.2751 34.6067C37.4627 34.2134 38.3188 33.0874 38.3188 31.7764V28.6221C38.3188 27.3882 37.5707 26.3316 36.4987 25.8766C39.2674 23.6555 40.9177 20.3008 40.9177 16.7378C40.9177 10.2674 35.6581 5 29.1954 5C22.7326 5 17.4653 10.2674 17.4653 16.7378C17.4653 20.3008 19.1157 23.6555 21.8843 25.8766C20.8201 26.3316 20.0643 27.3882 20.0643 28.6221V31.7764C20.0643 33.0951 20.928 34.2134 22.1157 34.6144V35.0617C22.0617 36.8201 21.599 40.0437 19.0077 41.8869L17.4267 43.0051H15.9692L13 53H27.4524H28.4319H45.3753L42.4679 43.1825Z" fill="#120B12"/>
<path d="M41.6812 43.9923C35.2108 42.3265 35.1876 35.7172 35.3265 33.7815C36.437 33.7815 37.3393 32.8869 37.3393 31.7763V28.6221C37.3393 27.5193 36.437 26.6169 35.3265 26.6169H23.0642C21.9537 26.6169 21.0514 27.5193 21.0514 28.6221V31.7763C21.0514 32.8869 21.9537 33.7815 23.0642 33.7815H26.6118C27.4524 33.7815 27.4524 35.0848 26.6118 35.0848H23.0951C23.0411 37.1979 22.4627 40.6452 19.5861 42.6812H29.4344C30.275 42.6812 30.275 43.9846 29.4344 43.9846H16.7018L14.311 52.0205H27.4524H44.0565L41.6735 43.9923H41.6812Z" fill="white"/>
<path d="M23.0181 25.5219H35.3728C38.1338 23.5785 39.9384 20.3625 39.9384 16.7301C39.9384 10.7995 35.1261 5.97949 29.1955 5.97949C23.2649 5.97949 18.4448 10.7995 18.4448 16.7378C18.4448 20.3702 20.2495 23.5862 23.0104 25.5296L23.0181 25.5219Z" fill="white"/>
</svg>
