<svg xmlns="http://www.w3.org/2000/svg" id="Layer_1" viewBox="29.89 121.56 43 56.9">
  <defs><style>.cls-1{fill:#00a84f;}</style></defs>
  <path class="cls-1" d="m67.07,157.52c1.04-1.12,1.97-2.36,2.78-3.71,1.95-3.27,2.93-6.86,2.93-10.77s-.97-7.57-2.91-10.85c-1.94-3.29-4.54-5.88-7.81-7.78-3.27-1.9-6.81-2.85-10.61-2.85s-7.4.95-10.69,2.85c-3.29,1.9-5.91,4.49-7.87,7.76-1.96,3.27-2.93,6.84-2.93,10.72s.98,7.67,2.93,10.96c.83,1.4,1.79,2.68,2.86,3.82-3.63,2.21-5.86,5.18-5.86,8.44,0,6.81,9.7,12.35,21.63,12.35s21.63-5.54,21.63-12.35c0-3.33-2.32-6.36-6.09-8.58Zm-31.06,13.87c-2.15-1.6-3.32-3.43-3.32-5.29,0-2.29,1.78-4.55,5-6.37.06-.03.12-.07.19-.1.89.72,1.83,1.37,2.84,1.96.1.06.21.11.31.17-3.46,1.7-5.66,4.23-5.66,7.04,0,.9.22,1.76.64,2.59Zm15.53,3.9c-4.91,0-7.59-2.13-7.59-3.23s2.68-3.23,7.59-3.23,7.59,2.13,7.59,3.23-2.68,3.23-7.59,3.23Zm10.3-2.5c.05-.24.08-.48.08-.73,0-3.32-4.66-6.01-10.38-6.01s-10.38,2.7-10.38,6.01c0,.25.03.49.08.73-1.9-1.13-3.08-2.53-3.08-3.99,0-2.2,2.67-4.26,6.44-5.45,2.11.71,4.3,1.06,6.59,1.06,2.45,0,4.79-.38,7.02-1.14,3.92,1.17,6.71,3.29,6.71,5.53,0,1.46-1.18,2.86-3.08,3.99Zm5.23-1.4c.42-.82.64-1.69.64-2.59,0-2.88-2.3-5.45-5.89-7.16.05-.03.1-.05.15-.08,1.07-.61,2.07-1.3,2.99-2.06.14.08.29.15.43.23,3.22,1.82,5,4.08,5,6.37,0,1.85-1.16,3.69-3.32,5.29Z"/>
</svg>