<svg fill="none" xmlns="http://www.w3.org/2000/svg" height="125" width="125">
<path d="M60.0617 34.2992C59.1221 34.8685 58.3445 35.669 57.8032 36.6244C57.2618 37.5798 56.9746 38.6583 56.9691 39.7569L57.1505 56.4018L57.0753 67.5987L57.2571 84.243C57.2511 85.3415 56.9637 86.4197 56.4224 87.3751C55.8811 88.3304 55.1038 89.131 54.1645 89.7007L42.8297 96.4267C41.9055 96.9729 40.8556 97.2715 39.7814 97.2939C38.7071 97.3162 37.6447 97.0615 36.6968 96.5543L25.4653 90.1899C24.5168 89.6672 23.7308 88.8933 23.194 87.9533C22.6572 87.0134 22.3904 85.9441 22.4231 84.8633L22.4352 71.9336C22.4412 70.835 22.7286 69.7568 23.2699 68.8015C23.8113 67.8462 24.5886 67.0456 25.5278 66.4759L36.6134 59.8209C37.5375 59.2748 38.5874 58.9761 39.6617 58.9538C40.736 58.9314 41.7983 59.1862 42.7462 59.6934L50.023 63.8168L49.94 52.5302L42.6632 48.4068C41.7274 47.8618 40.6595 47.5852 39.5774 47.6077C38.4952 47.6302 37.4408 47.9509 36.5304 48.5344L15.8118 60.7579C14.8725 61.3276 14.0952 62.1282 13.5539 63.0835C13.0126 64.0388 12.7252 65.1171 12.7192 66.2156L12.6977 90.5947C12.665 91.6754 12.9317 92.7446 13.4684 93.6844C14.0051 94.6243 14.7909 95.3982 15.7392 95.9209L36.7786 107.843C37.7144 108.388 38.7823 108.665 39.8645 108.642C40.9466 108.62 42.0011 108.299 42.9115 107.715L63.8129 95.1708C64.7522 94.6011 65.5295 93.8005 66.0708 92.8452C66.6122 91.8899 66.8995 90.8116 66.9056 89.7131L66.8819 73.1585L66.7989 61.872L66.7757 45.3167C66.7812 44.218 67.0684 43.1396 67.6098 42.1842C68.1512 41.2288 68.9287 40.4283 69.8683 39.859L80.9538 33.204C81.878 32.6579 82.9279 32.3593 84.0022 32.337C85.0764 32.3146 86.1388 32.5693 87.0867 33.0765L98.3182 39.4409C99.2667 39.9635 100.053 40.7375 100.59 41.6774C101.126 42.6173 101.393 43.6867 101.36 44.7675L101.507 57.7868C101.5 58.8853 101.213 59.9636 100.672 60.9189C100.13 61.8742 99.3532 62.6748 98.4139 63.2445L87.3284 69.8995C86.4042 70.4455 85.3543 70.7442 84.28 70.7665C83.2058 70.7888 82.1434 70.5341 81.1955 70.027L73.918 65.9032L74.001 77.1897L81.2778 81.3131C82.2136 81.8582 83.2815 82.1348 84.3636 82.1122C85.4458 82.0897 86.5002 81.7691 87.4106 81.1856L108.312 68.641C109.251 68.0713 110.029 67.2707 110.57 66.3154C111.111 65.3601 111.399 64.2818 111.405 63.1833L111.425 38.8063C111.418 37.7329 111.135 36.6787 110.602 35.7457C110.069 34.8127 109.305 34.0322 108.383 33.4797L87.3441 21.5581C86.4083 21.013 85.3404 20.7365 84.2582 20.759C83.176 20.7815 82.1216 21.1021 81.2112 21.6856L60.0617 34.2992Z" fill="#ffffff"/>
</svg>